<?xml version="1.0" encoding="utf-8"?>
<!-- Generator: Adobe Illustrator 24.1.0, SVG Export Plug-In . SVG Version: 6.00 Build 0)  -->
<svg version="1.1" id="Capa_1" xmlns="http://www.w3.org/2000/svg" xmlns:xlink="http://www.w3.org/1999/xlink" x="0px" y="0px"
	 viewBox="0 0 512 512" style="enable-background:new 0 0 512 512;" xml:space="preserve">
<style type="text/css">
	.st0{fill:#95E1D3;}
</style>
<g>
	<g>
		<g>
			<path class="st0" d="M398.5,457.4c0.1,14.9,12.2,26.9,27.1,26.8c14.9-0.1,26.9-12.2,26.8-27.1l-0.3-53.9l-53.9,0.3L398.5,457.4
				L398.5,457.4z"/>
			<path class="st0" d="M450.4,52.9c-0.1-14.9-12.2-26.9-27.1-26.8c-14.9,0.1-26.9,12.2-26.8,27.1l1,202.1l53.9-0.3L450.4,52.9z"/>
			<path class="st0" d="M61.6,459.1c0.1,14.9,12.2,26.9,27.1,26.8c14.9-0.1,26.9-12.2,26.8-27.1l-0.3-53.9l-53.9,0.3L61.6,459.1
				L61.6,459.1z"/>
			<path class="st0" d="M113.5,54.6c-0.1-14.9-12.2-26.9-27.1-26.8C71.6,27.8,59.5,40,59.6,54.9l1,202.1l53.9-0.3L113.5,54.6
				L113.5,54.6z"/>
			<path class="st0" d="M230,458.2c0.1,14.9,12.2,26.9,27.1,26.8C272,485,284,472.9,284,458l-1-202.1l-53.9,0.3L230,458.2L230,458.2
				z"/>
			<path class="st0" d="M282,53.8c-0.1-14.9-12.2-26.9-27.1-26.8C240,27,228,39.1,228,54l0.3,53.9l53.9-0.3L282,53.8L282,53.8z"/>
			<path class="st0" d="M212.6,252.1l86.6-0.4c7.2,0,12.9-11.8,12.9-26.3l-0.4-87.6c-0.1-14.5-6-26.2-13.1-26.2L212,112
				c-7.2,0-12.9,11.8-12.9,26.3l0.4,87.6C199.6,240.4,205.5,252.1,212.6,252.1z"/>
			<path class="st0" d="M45,400.9l86.6-0.4c7.2,0,12.9-11.8,12.9-26.3l-0.4-87.6c-0.1-14.5-6-26.2-13.1-26.2l-86.6,0.4
				c-7.2,0-12.9,11.8-12.9,26.3l0.4,87.6C31.9,389.3,37.8,401,45,400.9z"/>
			<path class="st0" d="M381.8,399.3l86.6-0.4c7.2,0,12.9-11.8,12.9-26.3l-0.4-87.6c-0.1-14.5-6-26.2-13.1-26.2l-86.6,0.4
				c-7.2,0-12.9,11.8-12.9,26.3l0.4,87.6C368.8,387.6,374.7,399.3,381.8,399.3z"/>
		</g>
	</g>
</g>
</svg>
