<?xml version="1.0"?>
<svg xmlns="http://www.w3.org/2000/svg" xmlns:xlink="http://www.w3.org/1999/xlink" version="1.1" id="Capa_1" x="0px" y="0px" viewBox="0 0 512 512" style="enable-background:new 0 0 512 512;" xml:space="preserve" width="512px" height="512px" class=""><g><g>
	<g>
		<g>
			<circle cx="256" cy="373.333" r="21.333" data-original="#000000" class="active-path" data-old_color="#000000" fill="#95E1D3"/>
			<path d="M266.667,106.667h106.667c5.896,0,10.667-4.771,10.667-10.667s-4.771-10.667-10.667-10.667H266.667     C260.771,85.333,256,90.104,256,96S260.771,106.667,266.667,106.667z" data-original="#000000" class="active-path" data-old_color="#000000" fill="#95E1D3"/>
			<path d="M266.667,170.667h64c5.896,0,10.667-4.771,10.667-10.667s-4.771-10.667-10.667-10.667h-64     c-5.896,0-10.667,4.771-10.667,10.667S260.771,170.667,266.667,170.667z" data-original="#000000" class="active-path" data-old_color="#000000" fill="#95E1D3"/>
			<path d="M469.333,42.667h-34.229C407.691,16.624,366.272,0,320,0s-87.691,16.624-115.104,42.667H42.667     C19.135,42.667,0,61.802,0,85.333V384c0,23.531,19.135,42.667,42.667,42.667h149.362c-0.46,17.052-3.728,44.306-15.893,57.104     c-4.469,4.708-9.604,6.896-16.135,6.896c-5.896,0-10.667,4.771-10.667,10.667c0,5.896,4.771,10.667,10.667,10.667h192     c5.896,0,10.667-4.771,10.667-10.667c0-5.896-4.771-10.667-10.667-10.667c-6.531,0-11.667-2.188-16.135-6.896     c-12.165-12.798-15.434-40.052-15.893-57.104h149.362C492.865,426.667,512,407.531,512,384V85.333     C512,61.802,492.865,42.667,469.333,42.667z M320,21.333c70.583,0,128,43.063,128,96s-57.417,96-128,96H207.083L224.417,196     c2.104-2.104,3.229-4.979,3.115-7.948s-1.458-5.76-3.719-7.698C203.302,162.781,192,140.396,192,117.333     C192,64.396,249.417,21.333,320,21.333z M197.729,490.667c12.881-19.749,15.374-48.188,15.695-64h85.151     c0.322,15.813,2.814,44.251,15.695,64H197.729z M490.667,384c0,11.76-9.573,21.333-21.333,21.333H42.667     c-11.76,0-21.333-9.573-21.333-21.333v-42.667h469.333V384z M490.667,320H21.333V85.333C21.333,73.573,30.906,64,42.667,64     h144.484c-10.464,16.023-16.484,34.121-16.484,53.333c0,25.969,10.885,50.948,30.875,71.375l-27.75,27.75     c-3.052,3.052-3.969,7.635-2.313,11.625c1.646,3.99,5.542,6.583,9.854,6.583H320c82.344,0,149.333-52.635,149.333-117.333     c0-19.212-6.021-37.31-16.484-53.333h16.484c11.76,0,21.333,9.573,21.333,21.333V320z" data-original="#000000" class="active-path" data-old_color="#000000" fill="#95E1D3"/>
		</g>
	</g>
</g></g> </svg>
