<?xml version="1.0" encoding="utf-8"?>
<!-- Generator: Adobe Illustrator 24.1.0, SVG Export Plug-In . SVG Version: 6.00 Build 0)  -->
<svg version="1.1" id="Capa_1" xmlns="http://www.w3.org/2000/svg" xmlns:xlink="http://www.w3.org/1999/xlink" x="0px" y="0px"
	 viewBox="0 0 512 512" style="enable-background:new 0 0 512 512;" xml:space="preserve">
<style type="text/css">
	.st0{fill:#95E1D3;}
</style>
<g>
	<g>
		<g>
			<g>
				<polygon class="st0" points="256,75.7 436.3,75.7 436.3,256 512,256 512,0 256,0 				"/>
				<polygon class="st0" points="75.7,256 75.7,75.7 256,75.7 256,0 0,0 0,256 				"/>
				<polygon class="st0" points="436.3,256 436.3,436.3 256,436.3 256,512 512,512 512,256 				"/>
				<polygon class="st0" points="256,436.3 75.7,436.3 75.7,256 0,256 0,512 256,512 				"/>
			</g>
		</g>
	</g>
</g>
<g>
	<g>
		<g>
			<g>
				<polygon class="st0" points="319.9,131.4 385.4,131.4 385.4,195.1 412.8,195.1 412.8,104.5 319.9,104.5 				"/>
				<polygon class="st0" points="138.5,195.1 138.5,131.4 204,131.4 204,104.5 111.1,104.5 111.1,195.1 				"/>
				<polygon class="st0" points="385.4,322.2 385.4,386 319.9,386 319.9,412.8 412.8,412.8 412.8,322.2 				"/>
				<polygon class="st0" points="204,386 138.5,386 138.5,322.2 111.1,322.2 111.1,412.8 204,412.8 				"/>
			</g>
		</g>
	</g>
</g>
</svg>
