<?xml version="1.0" encoding="utf-8"?>
<!-- Generator: Adobe Illustrator 24.1.0, SVG Export Plug-In . SVG Version: 6.00 Build 0)  -->
<svg version="1.1" id="Capa_1" xmlns="http://www.w3.org/2000/svg" xmlns:xlink="http://www.w3.org/1999/xlink" x="0px" y="0px"
	 viewBox="0 0 512 512" style="enable-background:new 0 0 512 512;" xml:space="preserve">
<style type="text/css">
	.st0{fill:#95E1D3;}
</style>
<g>
	<g>
		<g>
			<g>
				<polygon class="st0" points="344.2,133.5 462.4,133.5 462.4,251.7 512,251.7 512,83.9 344.2,83.9 				"/>
				<polygon class="st0" points="226,251.7 226,133.5 344.2,133.5 344.2,83.9 176.4,83.9 176.4,251.7 				"/>
				<polygon class="st0" points="462.4,251.7 462.4,369.9 344.2,369.9 344.2,419.5 512,419.5 512,251.7 				"/>
				<polygon class="st0" points="344.2,369.9 226,369.9 226,251.7 176.4,251.7 176.4,419.5 344.2,419.5 				"/>
			</g>
		</g>
	</g>
</g>
<g>
	<g>
		<g>
			<g>
				<polygon class="st0" points="386.1,170 429,170 429,211.8 447,211.8 447,152.4 386.1,152.4 				"/>
				<polygon class="st0" points="267.2,211.8 267.2,170 310.1,170 310.1,152.4 249.2,152.4 249.2,211.8 				"/>
				<polygon class="st0" points="429,295.1 429,336.9 386.1,336.9 386.1,354.5 447,354.5 447,295.1 				"/>
				<polygon class="st0" points="310.1,336.9 267.2,336.9 267.2,295.1 249.2,295.1 249.2,354.5 310.1,354.5 				"/>
			</g>
		</g>
	</g>
</g>
</svg>
