<?xml version="1.0" encoding="utf-8"?>
<!-- Generator: Adobe Illustrator 24.1.0, SVG Export Plug-In . SVG Version: 6.00 Build 0)  -->
<svg version="1.1" id="Capa_1" xmlns="http://www.w3.org/2000/svg" xmlns:xlink="http://www.w3.org/1999/xlink" x="0px" y="0px"
	 viewBox="0 0 512 512" style="enable-background:new 0 0 512 512;" xml:space="preserve">
<style type="text/css">
	.st0{fill:#95E1D3;}
</style>
<g>
	<g>
		<path class="st0" d="M458.8,0H53.2C43,0,34.8,8.3,34.8,18.4V385c0,10.2,8.3,18.4,18.4,18.4h90.6l-0.2,0.4c0,0,0.1,0,0.1,0
			c14,0.3,28.1-0.6,42.1-0.6c0.8,0,1.5,0.1,2,0.4l0.1-0.1H324l0.2,0.4c0,0,0.1,0,0.1,0c8.6,0.3,17.3-0.1,25.9-0.4
			c6-0.2,12-0.7,17.9,0l0,0h90.6c10.2,0,18.4-8.3,18.4-18.4V18.4C477.2,8.3,469,0,458.8,0z M440.3,366.5H71.7V36.9h368.7V366.5z"/>
		<path class="st0" d="M124.9,306.3c2.1,1.4,4.5,2.1,6.9,2.1c3.9,0,7.8-1.9,10.2-5.4l60.3-88.3l55.9,58c2.5,2.6,6,3.9,9.6,3.7
			c3.6-0.2,6.9-2,9.1-4.8l110.6-145c4.1-5.4,3.1-13.1-2.3-17.2c-5.4-4.1-13.1-3.1-17.2,2.3L266,245.4l-56.4-58.5
			c-2.6-2.7-6.2-4-9.9-3.7c-3.7,0.3-7,2.3-9.1,5.3l-68.8,100.8C117.9,294.8,119.3,302.5,124.9,306.3z"/>
	</g>
</g>
</svg>
