<?xml version="1.0" encoding="utf-8"?>
<!-- Generator: Adobe Illustrator 24.1.0, SVG Export Plug-In . SVG Version: 6.00 Build 0)  -->
<svg version="1.1" id="Capa_1" xmlns="http://www.w3.org/2000/svg" xmlns:xlink="http://www.w3.org/1999/xlink" x="0px" y="0px"
	 viewBox="0 0 512 512" style="enable-background:new 0 0 512 512;" xml:space="preserve">
<style type="text/css">
	.st0{fill:#95E1D3;}
</style>
<g>
	<g>
		<g>
			<path class="st0" d="M497,0H15C6.7,0,0,6.7,0,15v433.8V497c0,8.3,6.7,15,15,15h482c8.3,0,15-6.7,15-15v-48.2V15
				C512,6.7,505.3,0,497,0z M482,407.4l-94-112.8c-2.6-3.1-6.3-5-10.3-5.3c-4-0.3-8,1-11,3.6L293,356.3l-129.9-158
				c-3.1-3.8-8-5.8-12.9-5.4c-4.9,0.4-9.3,3.2-11.8,7.6L30,391.9V30h452V407.4z"/>
		</g>
	</g>
	<g>
		<g>
			<path class="st0" d="M352.4,96.4c-34.8,0-63.2,28.4-63.2,63.2s28.4,63.2,63.2,63.2c34.8,0,63.2-28.4,63.2-63.2
				S387.2,96.4,352.4,96.4z"/>
		</g>
	</g>
</g>
</svg>
