<?xml version="1.0"?>
<svg xmlns="http://www.w3.org/2000/svg" height="512px" viewBox="0 -26 512 512" width="512px"><g><path d="m477 0h-442c-19.300781 0-35 15.699219-35 35v300c0 19.300781 15.699219 35 35 35h161v60h-33c-8.285156 0-15 6.714844-15 15s6.714844 15 15 15h186c8.285156 0 15-6.714844 15-15s-6.714844-15-15-15h-33v-60h161c19.300781 0 35-15.699219 35-35v-300c0-19.300781-15.699219-35-35-35zm-447 35c0-2.757812 2.242188-5 5-5h442c2.757812 0 5 2.242188 5 5v245h-452zm256 395h-60v-60h60zm196-95c0 2.757812-2.242188 5-5 5h-442c-2.757812 0-5-2.242188-5-5v-25h452zm0 0" data-original="#000000" class="active-path" data-old_color="#000000" fill="#95E1D3"/></g> </svg>
